<svg version="1.1" viewBox="0.0 0.0 960.0 720.0" fill="none" stroke="none" stroke-linecap="square" stroke-miterlimit="10" xmlns:xlink="http://www.w3.org/1999/xlink" xmlns="http://www.w3.org/2000/svg"><clipPath id="p.0"><path d="m0 0l960.0 0l0 720.0l-960.0 0l0 -720.0z" clip-rule="nonzero"/></clipPath><g clip-path="url(#p.0)"><path fill="#000000" fill-opacity="0.0" d="m0 0l960.0 0l0 720.0l-960.0 0z" fill-rule="evenodd"/><g filter="url(#shadowFilter-p.1)"><use xlink:href="#p.1" transform="matrix(1.0 0.0 0.0 1.0 0.0 2.0)"/></g><defs><filter id="shadowFilter-p.1" filterUnits="userSpaceOnUse"><feGaussianBlur in="SourceAlpha" stdDeviation="2.0" result="blur"/><feComponentTransfer in="blur" color-interpolation-filters="sRGB"><feFuncR type="linear" slope="0" intercept="0.9372549"/><feFuncG type="linear" slope="0" intercept="0.9372549"/><feFuncB type="linear" slope="0" intercept="0.9372549"/><feFuncA type="linear" slope="0.5" intercept="0"/></feComponentTransfer></filter></defs><g id="p.1"><path fill="#cc0000" d="m424.0518 307.09738c0 0 0 0 0 0l0 0c0 0 0 0 0 0zm-67.97159 43.790863c0 0 0 0 0 0l0 0l0 0zm202.11823 -36.789246c1.1010742 0 2.1706543 0.1503601 3.2086792 0.45111084c2.09552 0.60147095 3.9193726 2.0372925 5.4716187 4.3074036c0.7178955 1.1835632 1.1350708 2.910431 1.2514648 5.180542c0.11639404 2.270111 -0.18432617 4.7730713 -0.9022217 7.50885c-0.6984863 2.7358093 -2.0081787 5.413391 -3.9290771 8.032745c-1.2999878 1.8044739 -2.8812866 3.6865234 -4.7439575 5.6462097c-1.8432617 1.9596863 -3.5992432 3.7738342 -5.2678223 5.4424744c-1.6687012 1.6686401 -2.9783325 2.978302 -3.9290771 3.9290466c-2.3865356 2.270111 -4.5984497 4.1230774 -6.635742 5.558899c-2.0178833 1.435791 -4.220093 2.541748 -6.6066284 3.317871c-2.3671265 0.7760925 -5.461914 1.3387756 -9.284241 1.6880188c-0.23284912 -0.7178955 0.03881836 -2.328308 0.8149414 -4.8312683c0.77612305 -2.5029602 1.8432617 -5.510376 3.201416 -9.022278c1.3776245 -3.5119019 2.9006958 -7.179016 4.569397 -11.001373c1.6685791 -3.8223267 3.3081055 -7.40213 4.918579 -10.73941c1.6104126 -3.3372803 3.0947266 -6.1312866 4.452942 -8.381989c1.3775635 -2.270111 2.3671265 -3.531311 2.968628 -3.7835388c2.3865356 -1.2999878 4.734253 -2.2507324 7.043152 -2.8522034c1.1641846 -0.30075073 2.296814 -0.45111084 3.3979492 -0.45111084zm-90.707 -18.098999c-2.0629883 0 -3.4994202 0.7602844 -4.3092957 2.2809143c-0.9507446 0.36865234 -1.5231323 0.9410095 -1.7171326 1.7171326c-0.1746521 0.75671387 -0.2619629 1.435791 -0.2619629 2.0372925c-0.2328186 0.4850464 -0.4074402 0.9701233 -0.52386475 1.4552002c-0.11642456 0.46566772 -0.41714478 0.93133545 -0.9022217 1.3970032c-0.4850769 0 -2.153717 -0.08731079 -5.0059204 -0.26193237c-1.2223816 -0.07485962 -2.6443176 -0.11227417 -4.2658386 -0.11227417c-2.1620178 0 -4.678833 0.06652832 -7.5504456 0.19958496c-1.5727844 -0.057037354 -3.046112 -0.08554077 -4.419922 -0.08554077c-4.235962 0 -7.5260315 0.27105713 -9.870178 0.81314087c-2.0165405 0.4663086 -3.5541687 1.0186157 -4.612854 1.6568604l0 0c-0.5620117 -0.81915283 -1.1795654 -1.5751648 -1.8526611 -2.2680664c-0.9715576 -1.029541 -1.845581 -1.544342 -2.6220703 -1.544342c-0.2624817 0 -0.51382446 0.058807373 -0.7539978 0.17645264c-0.03250122 -0.008117676 -0.0690918 -0.012176514 -0.109802246 -0.012176514c-0.5427246 0 -1.8157959 0.72195435 -3.8192444 2.1658936c-2.153717 1.5522156 -4.239502 3.0462341 -6.2573853 4.482025c-1.6686401 1.0671692 -3.7544556 2.5514832 -6.2573853 4.452942c-2.5029602 1.9014587 -5.248474 3.628296 -8.236481 5.180542l-23.603455 19.150513c-5.00589 3.802948 -8.372284 6.509613 -10.099121 8.120056c-1.7268372 1.6104126 -2.7648926 2.599945 -3.1141357 2.9685974l-1.2458496 0.9184265l0 0c0.82733154 -2.1289062 1.8634949 -4.6081543 3.10849 -7.437744c1.4940186 -3.4148865 3.075348 -6.965576 4.743988 -10.6521c1.6686401 -3.7059326 3.2790527 -7.1984253 4.8312683 -10.477478c1.5522461 -3.2790833 2.803711 -5.985779 3.7544556 -8.120056c0.7178955 -1.4358215 1.1350403 -2.6581726 1.2514648 -3.6671143c0.11642456 -1.0089722 -0.30075073 -2.82312 -1.2514648 -5.4424744c-0.83432007 -2.8716125 -2.3574524 -4.307434 -4.5693665 -4.307434c-2.192505 0 -4.840973 0.83432007 -7.945404 2.5029602c-0.4850769 0.4850769 -0.9701538 1.1156616 -1.4552307 1.8917847c-0.46566772 0.7760925 -0.6984863 1.164154 -0.6984863 1.164154c0 0 -0.2425232 0.8052063 -0.7276001 2.4156494c-0.46566772 1.5910339 -1.2999878 3.2887573 -2.5029602 5.093231c-0.83432007 1.9014587 -1.7268372 3.7156067 -2.6775818 5.442444c-0.9507446 1.7268677 -1.4260864 2.8910217 -1.4260864 3.4925232c0 0.4656372 0 0.91192627 0 1.3387756c0 0.4074707 0 0.61117554 0 0.61117554c-0.34927368 0 -0.94104004 0.8731384 -1.7753601 2.6193848c-0.83432007 1.7268372 -1.7656555 3.812622 -2.7940063 6.2573853c-1.0089417 2.425354 -2.046997 4.7730713 -3.1141357 7.0431824c-1.5522156 4.055176 -3.0462341 8.081268 -4.482025 12.078217c-1.4164124 3.9969788 -2.4835815 7.0043945 -3.201477 9.022278c-0.4850464 1.9208984 -1.1447449 3.7738647 -1.979065 5.558899c-0.83432007 1.7850647 -1.6104431 3.4537048 -2.3283386 5.0059204c0 0.9507141 -0.14550781 2.2895203 -0.43655396 4.0163574c-0.29104614 1.7268677 -0.7373047 3.3081665 -1.3388062 4.743988c-0.60147095 0.9507141 -1.1447449 1.930542 -1.6298218 2.9395142c-0.46566772 1.0089417 -0.6984863 1.9984741 -0.6984863 2.9685974c0 0.46566772 -0.44625854 1.8335876 -1.3388062 4.1036987c-0.8925171 2.270111 -1.814148 4.4141235 -2.7648926 6.432007c-0.7178955 2.5029602 -1.435791 4.889496 -2.1536865 7.159607c-0.717926 2.2507324 -1.0768738 3.8611755 -1.0768738 4.831299c0 0.46566772 -0.05819702 1.0283508 -0.17462158 1.6880493c-0.11639404 0.65966797 -0.4753418 0.9895325 -1.0768433 0.9895325c-0.11642456 0.46566772 -0.32983398 1.3581848 -0.6402893 2.6775818c-0.29104614 1.319397 -0.37835693 2.6872864 -0.26193237 4.103668c-0.69851685 2.5029602 -0.3977661 4.4432373 0.9022217 5.8208313c1.319397 1.377594 2.755188 2.5417786 4.3074036 3.4924927c0.69851685 0.5820923 1.3484802 1.04776 1.9499817 1.3970032c0.60150146 0.36865234 1.1350708 0.5529785 1.6007385 0.5529785c0.83432007 0 1.5522156 -0.35894775 2.1536865 -1.0768433c0.60150146 -0.69851685 1.1932678 -1.7365417 1.7753601 -3.1141663c0.60150146 -1.377594 1.2611694 -3.075348 1.9790955 -5.0932007c1.435791 -3.9387817 2.9006958 -8.3237915 4.3947144 -13.15506c1.493988 -4.831299 2.9492188 -9.594666 4.3656006 -14.290131c1.4358215 -4.7148743 2.6872864 -8.77005 3.7544556 -12.165527c1.0865479 -3.3954773 1.8626404 -5.510376 2.328308 -6.344696l0.84747314 -2.0792236l0 0c0.18713379 1.3648682 0.5934448 2.8631592 1.2189331 4.4948425c0.8925171 2.3283386 1.7559509 5.393982 2.590271 9.19693c1.435791 5.1223145 3.6089172 10.01181 6.5193176 14.668457c2.9298096 4.6566772 5.345459 8.352905 7.2469177 11.088684c1.0671692 1.319397 2.5223694 2.8716125 4.365631 4.6566467c1.8626709 1.7850647 3.8320312 3.5119324 5.908142 5.180542c2.0954895 1.6686401 4.0648804 3.0656433 5.908142 4.1910095c1.6477661 1.023346 2.993164 1.5350037 4.0362244 1.5350037c0.12374878 0 0.24325562 -0.0072021484 0.35849 -0.021606445c2.5188293 1.1651917 4.432373 1.7477722 5.740631 1.7477722c0.17315674 0 0.33569336 -0.010223389 0.48764038 -0.03060913c1.319397 -0.1746521 2.3962402 -0.67910767 3.2305603 -1.5134277c0.83432007 -0.36865234 1.484314 -1.1835632 1.9499817 -2.4447327c0.4850769 -1.2417908 0.84402466 -2.4932556 1.0768433 -3.7544556c0.2522583 -1.2417603 0.3201599 -2.0372925 0.20373535 -2.3865356c0.11642456 -0.60147095 -0.00970459 -1.2611694 -0.37835693 -1.979065c-0.34924316 -0.7178955 -1.0671387 -1.5522156 -2.1536865 -2.5029602c-1.0671692 -0.9507446 -2.7261047 -1.9596863 -4.9768066 -3.026825c-1.0865784 0 -2.7066956 -0.7178955 -4.8604126 -2.153717c-2.1342773 -1.435791 -4.569336 -3.6380005 -7.3051147 -6.6066284c-2.153717 -2.0372925 -4.093994 -4.5402527 -5.8208313 -7.5088806c-1.7268372 -2.9880066 -3.3081665 -6.0342407 -4.743988 -9.138672c-1.7850342 -3.3372803 -3.3372498 -7.120819 -4.6566467 -11.350616c-0.9468994 -3.080902 -1.7084656 -6.7485657 -2.28479 -11.00296l0 0c1.646759 -1.2403564 3.2426758 -2.394287 4.7877502 -3.461792c2.1536865 -1.4940186 3.647705 -2.483551 4.482025 -2.968628c0.11853027 0.0126953125 0.23510742 0.019042969 0.34973145 0.019042969c0.9359436 0 1.7409973 -0.42349243 2.4151611 -1.2705078c0.77612305 -0.9507446 1.2902832 -1.7268677 1.542511 -2.3283386c0.46566772 -0.7178955 1.1738892 -1.3970032 2.1246033 -2.0372925c0.9701538 -0.6596985 1.4552307 -0.9895325 1.4552307 -0.9895325c0.11639404 0.029083252 0.23098755 0.043640137 0.34378052 0.043640137c0.3383484 0 0.66030884 -0.13095093 0.96588135 -0.3928833c0.42687988 -0.36865234 0.882843 -0.5529785 1.3679199 -0.5529785c0.9507141 -1.4358215 2.9395142 -3.3760986 5.966339 -5.8208313c3.0462341 -2.4447632 6.9558716 -5.2775574 11.728943 -8.498413c3.4537048 -2.3671265 6.4320374 -4.5014343 8.934967 -6.402893c2.5029602 -1.9208984 3.7544556 -2.8813171 3.7544556 -2.8813171c0.25222778 -0.60150146 1.2417603 -1.4940186 2.9685974 -2.6775818c1.7268677 -1.2029724 4.074585 -2.4544373 7.043213 -3.754425c1.8876038 -1.0828247 3.2344666 -1.9945679 4.040619 -2.7352905l0 0c1.9857178 0.7596741 5.529785 1.2542725 10.632233 1.4837952c2.7357788 0 5.238739 0.05822754 7.5088806 0.17462158c1.1350403 0.05822754 2.2094727 0.08731079 3.2232666 0.08731079c1.013794 0 1.9669495 -0.029083252 2.859497 -0.08731079l6.6066284 0l0 2.8522034c0 0.60150146 -0.27163696 1.9208984 -0.8149109 3.9581604c-0.52389526 2.0178833 -1.0283508 3.9775696 -1.5134277 5.879059c-0.46566772 2.1536865 -1.0283508 4.3074036 -1.6880493 6.46109c-0.65966797 2.1343079 -1.2223511 4.152191 -1.6880188 6.0536804c-0.2522583 1.3193665 -0.6499939 3.4730835 -1.1932678 6.4611206c-0.52389526 2.9685974 -1.4455261 5.7044067 -2.7648926 8.207336c-0.46566772 3.5701294 -0.9701538 6.790985 -1.5134277 9.662598c-0.52386475 2.8522034 -0.7857971 4.753662 -0.7857971 5.7044067c-0.2522583 0.9701233 -0.7373047 2.8522034 -1.4552307 5.646179c-0.6984863 2.7940063 -1.5328064 6.043976 -2.5029297 9.749878c-0.9507446 3.6865234 -1.9014893 7.3827515 -2.8522034 11.088684c-0.9507446 3.6865234 -1.8141785 6.9364624 -2.590271 9.749878c-0.77612305 2.7940063 -1.3970032 4.6081543 -1.8626709 5.4424744c-1.2029724 2.6193848 -0.94104004 4.9379883 0.7857971 6.955902c1.7268677 2.0372925 3.7253418 3.356659 5.995453 3.9581604c1.319397 0.58206177 2.2701416 0.9022217 2.8522034 0.9604187c0.082977295 0.01071167 0.16482544 0.016052246 0.24557495 0.016052246c0.5046692 0 0.966095 -0.20907593 1.3842773 -0.6272278c0.34924316 -0.34924316 1.0865479 -1.7753601 2.211914 -4.2783203c1.1447449 -2.5029602 2.3671265 -5.364868 3.6671143 -8.585693c1.3193665 -3.2208557 2.3380127 -5.9663696 3.0559387 -8.236481c0 -0.4850769 0.17462158 -1.3193665 0.52386475 -2.5029602c0.36865234 -1.1835632 0.5529785 -2.376831 0.5529785 -3.5798035c1.5522156 -2.968628 1.7268372 -4.5790405 0.52386475 -4.831299c0.36865234 -0.2328186 0.78582764 -1.4163818 1.2514954 -3.5506897c0.4850464 -2.153717 0.93133545 -4.452942 1.3387756 -6.8976746c0.42687988 -2.4447632 0.6402893 -4.200714 0.6402893 -5.267853c0 -0.9701538 0.23284912 -1.8335571 0.69851685 -2.590271c0.4850464 -0.7760925 0.7276001 -1.164154 0.7276001 -1.164154c0.46566772 -0.4850769 0.9022217 -1.6201172 1.3096924 -3.405182c0.42684937 -1.7850647 0.76638794 -3.9872742 1.0186157 -6.6066284c0.46566772 -2.7552185 0.9701538 -5.0544434 1.5134277 -6.897705c0.5432739 -1.8432312 0.8149109 -2.7648926 0.8149109 -2.7648926c0 -0.9507141 0.20373535 -1.9014587 0.61120605 -2.8522034c0.42684937 -0.9701233 0.8731079 -2.2895203 1.3387756 -3.9581604c0.7178955 -1.7850342 1.105957 -3.0365295 1.164154 -3.754425c0.05822754 -0.7178955 -0.14550781 -1.3096924 -0.61117554 -1.7753601c0.46566772 -0.7178955 1.0865479 -2.211914 1.8626709 -4.482025c0.7760925 -2.270111 1.5231018 -4.947693 2.2409973 -8.032745c0.717926 -2.755188 1.4649048 -5.384247 2.2410278 -7.887207c0.77612305 -2.5029602 1.3970032 -3.754425 1.8626709 -3.754425c0 -0.5820923 0.7760925 -0.9604492 2.3283386 -1.1350708c1.5522156 -0.19403076 3.2208557 -0.29104614 5.00589 -0.29104614c4.1716003 -0.2328186 7.5670776 -0.49475098 10.186462 -0.7857971c2.6387634 -0.31045532 5.32605 -0.69851685 8.061829 -1.1641846c1.435791 0 3.1626587 -0.08731079 5.180542 -0.26193237c2.0178833 -0.19403076 3.4439697 -0.29104614 4.27829 -0.29104614c1.4358215 0 2.745514 -0.14550781 3.9290466 -0.43655396c1.2030029 -0.31045532 2.046997 -0.6984863 2.5321045 -1.164154c0.4656372 -0.9507446 0.6984863 -1.5134277 0.6984863 -1.6880493c0 -0.19403076 -0.23284912 -0.52386475 -0.6984863 -0.9895325c-0.48510742 -0.4850769 -0.75671387 -0.9604492 -0.8149414 -1.426117c-0.05822754 -0.4850769 -0.08728027 -0.9701233 -0.08728027 -1.4552002c-0.36865234 -0.5820923 -1.1156616 -1.5619202 -2.2410278 -2.9395142c-1.1253662 -1.377594 -3.0656433 -2.0664062 -5.8208313 -2.0664062c-1.7850647 -0.2328186 -3.5410156 -0.34924316 -5.267853 -0.34924316c-1.7268372 0 -3.1238403 0.30075073 -4.1910095 0.9022217c-0.83432007 0 -2.328308 0.08731079 -4.482025 0.2619629c-2.1343079 0.17462158 -4.5790405 0.26193237 -7.3342285 0.26193237c-2.2507324 0.11639404 -4.394745 0.2425232 -6.4320374 0.37835693c-2.0178833 0.11639404 -3.2693481 0.4074402 -3.754425 0.8731079c-0.83432007 -0.9507141 -1.164154 -2.0178833 -0.9895325 -3.2014465c0.19403076 -1.2029724 0.04849243 -2.3380432 -0.43655396 -3.405182c-1.319397 -1.9014893 -3.317871 -2.9977417 -5.995453 -3.2887573c-0.396698 -0.04598999 -0.77441406 -0.069000244 -1.1331787 -0.069000244zm88.50235 3.5323792c0 0 -1.0186768 0.18432617 -3.0559692 0.5529785c-2.0178833 0.34924316 -4.161865 0.6984863 -6.432007 1.04776c-3.4536743 0.7178955 -6.3737793 1.435791 -8.760315 2.1536865c-2.3865356 0.7178955 -3.8805542 1.6104431 -4.4820557 2.6775818c-0.9507446 2.0372925 -1.7850342 3.0559387 -2.5029297 3.0559387c-2.968628 0.11642456 -3.9193726 1.7268372 -2.852234 4.831299c0.46569824 0.2328186 0.6403198 0.67907715 0.52386475 1.3387756c-0.11639404 0.6402893 -0.40740967 1.8626709 -0.8731079 3.6671143c-0.9701538 0.7178955 -1.5424805 1.6686401 -1.7171631 2.8522034c-0.17462158 1.1835632 -0.26190186 1.7753601 -0.26190186 1.7753601c-1.1835938 1.5522156 -1.8723755 2.6872864 -2.0664062 3.405182c-0.17462158 0.7178955 -0.26190186 1.0768433 -0.26190186 1.0768433c-0.11645508 0 -0.5336304 0.6596985 -1.2515259 1.9790955c-0.7178955 1.2999878 -1.4940186 2.8812866 -2.328308 4.7439575c-0.8343506 1.8432617 -1.5522461 3.5992126 -2.1536865 5.267853c-0.5820923 1.6686401 -0.87316895 2.861908 -0.87316895 3.5798035c-0.7178955 0.5820923 -1.4649048 1.6783447 -2.2409668 3.2887878c-0.77612305 1.6104126 -1.435852 3.2790527 -1.979126 5.00589c-0.52386475 1.7268372 -0.84399414 3.133545 -0.9604187 4.220093c-0.25222778 0.34927368 -0.6208801 1.096283 -1.105957 2.2410278c-0.46566772 1.1253662 -0.8828125 2.2216187 -1.2514648 3.2887573c-0.34927368 1.0671692 -0.52389526 1.7268677 -0.52389526 1.9790955c-0.9507141 1.9014587 -2.3477173 4.9961853 -4.190979 9.28421c-1.8432617 4.288025 -3.5992126 9.235718 -5.267853 14.843109c-0.36865234 1.9014587 -0.6984863 3.812622 -0.9895325 5.7335205c-0.29104614 1.9014587 -0.43655396 3.026825 -0.43655396 3.376068c-0.60150146 1.0865479 -1.1156921 2.1634216 -1.5425415 3.2305603c-0.4074402 1.0671387 -0.5529785 1.8432617 -0.43655396 2.3283386c0 2.0178833 -0.2425232 3.2693481 -0.7276001 3.754425c-0.31045532 0.3104248 -0.6252136 0.46566772 -0.9442749 0.46566772c-0.1595459 0 -0.3201294 -0.03881836 -0.48184204 -0.11642456c0 0.23284912 -0.27163696 1.2514648 -0.8149109 3.0559387c-0.52386475 1.7850647 -1.1447449 3.8708496 -1.8626709 6.2573853c-0.7178955 2.8522034 -1.2611694 4.8992004 -1.6298218 6.1409607c-0.34924316 1.2612 -0.49475098 2.0664062 -0.43655396 2.4156494c0.0776062 0.36865234 0.17462158 0.7276001 0.29104614 1.0768433c0.11639404 1.0865784 0.7373047 2.046997 1.8626709 2.8813171c1.1447449 0.83432007 2.4253235 1.542511 3.8417358 2.1246033c1.435791 0.60147095 2.4544373 1.0865479 3.0559387 1.4552002c0.25723267 0.221344 0.5569153 0.33203125 0.89901733 0.33203125c0.76742554 0 1.7483215 -0.5569458 2.9427185 -1.6708069c1.7268372 -1.6104431 2.8230896 -4.0260925 3.2887573 -7.2469482c1.4358215 -4.7730713 2.7454834 -8.77005 3.9290771 -11.990875c1.2029419 -3.2208557 2.4253235 -6.4417114 3.6670837 -9.662567c1.2611694 -3.2208557 2.6096802 -7.20813 4.045471 -11.9618225l3.7544556 -10.73941l6.6066284 0.9022217c1.2030029 0 2.425354 -0.05819702 3.6671143 -0.17462158c1.2611694 -0.13580322 2.1828003 -0.43655396 2.7648926 -0.9022217c2.5029907 -0.4850769 4.7633667 -0.9604492 6.78125 -1.426117c2.0372925 -0.4850464 4.4335327 -1.5619202 7.1887207 -3.2305603c0.46569824 -0.2328186 1.0574951 -0.67907715 1.7753906 -1.3387756c0.7178955 -0.6596985 1.3678589 -1.1350708 1.9499512 -1.426117c0.14099121 -0.06820679 0.2654419 -0.10229492 0.37335205 -0.10229492c0.3526001 0 0.5288696 0.36395264 0.5288696 1.0918579c0.9507446 -1.4358215 2.260437 -2.7164001 3.9290771 -3.8417664c1.6880493 -1.1447449 3.2402344 -2.1342773 4.6566772 -2.9685974c1.552185 -0.83432007 2.7454834 -1.9888 3.579773 -3.4634094c0.8343506 -1.493988 1.2514648 -2.2409973 1.2514648 -2.2409973c0.8343506 -0.2522583 2.0567017 -1.0865784 3.6671753 -2.5029602c1.6104126 -1.4358215 2.9492188 -2.8327942 4.0163574 -4.1910095c1.0018921 -1.2702332 1.2861328 -1.905365 0.85284424 -1.905365c-0.036621094 0 -0.07836914 0.0045166016 -0.12524414 0.01361084c1.0671387 -0.83432007 2.2894897 -2.6775818 3.6671143 -5.529785c1.3776245 -2.8716125 2.6872559 -6.121582 3.9290771 -9.749878c1.2611694 -3.6477356 2.2700806 -7.0820007 3.0267944 -10.302856c0.77612305 -3.2208862 1.0477295 -5.5491943 0.8149414 -6.985016c-0.34924316 -2.7357788 -2.1052246 -5.888733 -5.2678833 -9.458832c-3.1625977 -3.5700989 -6.8879395 -6.37381 -11.175964 -8.411102c-1.5522461 -0.34924316 -3.6671143 -0.6402893 -6.3447266 -0.8731079c-2.6775513 -0.25222778 -4.850647 -0.37835693 -6.519287 -0.37835693z" fill-rule="evenodd"/><path stroke="#ffffff" stroke-width="1.0" stroke-linejoin="round" stroke-linecap="butt" d="m424.0518 307.09738c0 0 0 0 0 0l0 0c0 0 0 0 0 0zm-67.97159 43.790863c0 0 0 0 0 0l0 0l0 0zm202.11823 -36.789246c1.1010742 0 2.1706543 0.1503601 3.2086792 0.45111084c2.09552 0.60147095 3.9193726 2.0372925 5.4716187 4.3074036c0.7178955 1.1835632 1.1350708 2.910431 1.2514648 5.180542c0.11639404 2.270111 -0.18432617 4.7730713 -0.9022217 7.50885c-0.6984863 2.7358093 -2.0081787 5.413391 -3.9290771 8.032745c-1.2999878 1.8044739 -2.8812866 3.6865234 -4.7439575 5.6462097c-1.8432617 1.9596863 -3.5992432 3.7738342 -5.2678223 5.4424744c-1.6687012 1.6686401 -2.9783325 2.978302 -3.9290771 3.9290466c-2.3865356 2.270111 -4.5984497 4.1230774 -6.635742 5.558899c-2.0178833 1.435791 -4.220093 2.541748 -6.6066284 3.317871c-2.3671265 0.7760925 -5.461914 1.3387756 -9.284241 1.6880188c-0.23284912 -0.7178955 0.03881836 -2.328308 0.8149414 -4.8312683c0.77612305 -2.5029602 1.8432617 -5.510376 3.201416 -9.022278c1.3776245 -3.5119019 2.9006958 -7.179016 4.569397 -11.001373c1.6685791 -3.8223267 3.3081055 -7.40213 4.918579 -10.73941c1.6104126 -3.3372803 3.0947266 -6.1312866 4.452942 -8.381989c1.3775635 -2.270111 2.3671265 -3.531311 2.968628 -3.7835388c2.3865356 -1.2999878 4.734253 -2.2507324 7.043152 -2.8522034c1.1641846 -0.30075073 2.296814 -0.45111084 3.3979492 -0.45111084zm-90.707 -18.098999c-2.0629883 0 -3.4994202 0.7602844 -4.3092957 2.2809143c-0.9507446 0.36865234 -1.5231323 0.9410095 -1.7171326 1.7171326c-0.1746521 0.75671387 -0.2619629 1.435791 -0.2619629 2.0372925c-0.2328186 0.4850464 -0.4074402 0.9701233 -0.52386475 1.4552002c-0.11642456 0.46566772 -0.41714478 0.93133545 -0.9022217 1.3970032c-0.4850769 0 -2.153717 -0.08731079 -5.0059204 -0.26193237c-1.2223816 -0.07485962 -2.6443176 -0.11227417 -4.2658386 -0.11227417c-2.1620178 0 -4.678833 0.06652832 -7.5504456 0.19958496c-1.5727844 -0.057037354 -3.046112 -0.08554077 -4.419922 -0.08554077c-4.235962 0 -7.5260315 0.27105713 -9.870178 0.81314087c-2.0165405 0.4663086 -3.5541687 1.0186157 -4.612854 1.6568604l0 0c-0.5620117 -0.81915283 -1.1795654 -1.5751648 -1.8526611 -2.2680664c-0.9715576 -1.029541 -1.845581 -1.544342 -2.6220703 -1.544342c-0.2624817 0 -0.51382446 0.058807373 -0.7539978 0.17645264c-0.03250122 -0.008117676 -0.0690918 -0.012176514 -0.109802246 -0.012176514c-0.5427246 0 -1.8157959 0.72195435 -3.8192444 2.1658936c-2.153717 1.5522156 -4.239502 3.0462341 -6.2573853 4.482025c-1.6686401 1.0671692 -3.7544556 2.5514832 -6.2573853 4.452942c-2.5029602 1.9014587 -5.248474 3.628296 -8.236481 5.180542l-23.603455 19.150513c-5.00589 3.802948 -8.372284 6.509613 -10.099121 8.120056c-1.7268372 1.6104126 -2.7648926 2.599945 -3.1141357 2.9685974l-1.2458496 0.9184265l0 0c0.82733154 -2.1289062 1.8634949 -4.6081543 3.10849 -7.437744c1.4940186 -3.4148865 3.075348 -6.965576 4.743988 -10.6521c1.6686401 -3.7059326 3.2790527 -7.1984253 4.8312683 -10.477478c1.5522461 -3.2790833 2.803711 -5.985779 3.7544556 -8.120056c0.7178955 -1.4358215 1.1350403 -2.6581726 1.2514648 -3.6671143c0.11642456 -1.0089722 -0.30075073 -2.82312 -1.2514648 -5.4424744c-0.83432007 -2.8716125 -2.3574524 -4.307434 -4.5693665 -4.307434c-2.192505 0 -4.840973 0.83432007 -7.945404 2.5029602c-0.4850769 0.4850769 -0.9701538 1.1156616 -1.4552307 1.8917847c-0.46566772 0.7760925 -0.6984863 1.164154 -0.6984863 1.164154c0 0 -0.2425232 0.8052063 -0.7276001 2.4156494c-0.46566772 1.5910339 -1.2999878 3.2887573 -2.5029602 5.093231c-0.83432007 1.9014587 -1.7268372 3.7156067 -2.6775818 5.442444c-0.9507446 1.7268677 -1.4260864 2.8910217 -1.4260864 3.4925232c0 0.4656372 0 0.91192627 0 1.3387756c0 0.4074707 0 0.61117554 0 0.61117554c-0.34927368 0 -0.94104004 0.8731384 -1.7753601 2.6193848c-0.83432007 1.7268372 -1.7656555 3.812622 -2.7940063 6.2573853c-1.0089417 2.425354 -2.046997 4.7730713 -3.1141357 7.0431824c-1.5522156 4.055176 -3.0462341 8.081268 -4.482025 12.078217c-1.4164124 3.9969788 -2.4835815 7.0043945 -3.201477 9.022278c-0.4850464 1.9208984 -1.1447449 3.7738647 -1.979065 5.558899c-0.83432007 1.7850647 -1.6104431 3.4537048 -2.3283386 5.0059204c0 0.9507141 -0.14550781 2.2895203 -0.43655396 4.0163574c-0.29104614 1.7268677 -0.7373047 3.3081665 -1.3388062 4.743988c-0.60147095 0.9507141 -1.1447449 1.930542 -1.6298218 2.9395142c-0.46566772 1.0089417 -0.6984863 1.9984741 -0.6984863 2.9685974c0 0.46566772 -0.44625854 1.8335876 -1.3388062 4.1036987c-0.8925171 2.270111 -1.814148 4.4141235 -2.7648926 6.432007c-0.7178955 2.5029602 -1.435791 4.889496 -2.1536865 7.159607c-0.717926 2.2507324 -1.0768738 3.8611755 -1.0768738 4.831299c0 0.46566772 -0.05819702 1.0283508 -0.17462158 1.6880493c-0.11639404 0.65966797 -0.4753418 0.9895325 -1.0768433 0.9895325c-0.11642456 0.46566772 -0.32983398 1.3581848 -0.6402893 2.6775818c-0.29104614 1.319397 -0.37835693 2.6872864 -0.26193237 4.103668c-0.69851685 2.5029602 -0.3977661 4.4432373 0.9022217 5.8208313c1.319397 1.377594 2.755188 2.5417786 4.3074036 3.4924927c0.69851685 0.5820923 1.3484802 1.04776 1.9499817 1.3970032c0.60150146 0.36865234 1.1350708 0.5529785 1.6007385 0.5529785c0.83432007 0 1.5522156 -0.35894775 2.1536865 -1.0768433c0.60150146 -0.69851685 1.1932678 -1.7365417 1.7753601 -3.1141663c0.60150146 -1.377594 1.2611694 -3.075348 1.9790955 -5.0932007c1.435791 -3.9387817 2.9006958 -8.3237915 4.3947144 -13.15506c1.493988 -4.831299 2.9492188 -9.594666 4.3656006 -14.290131c1.4358215 -4.7148743 2.6872864 -8.77005 3.7544556 -12.165527c1.0865479 -3.3954773 1.8626404 -5.510376 2.328308 -6.344696l0.84747314 -2.0792236l0 0c0.18713379 1.3648682 0.5934448 2.8631592 1.2189331 4.4948425c0.8925171 2.3283386 1.7559509 5.393982 2.590271 9.19693c1.435791 5.1223145 3.6089172 10.01181 6.5193176 14.668457c2.9298096 4.6566772 5.345459 8.352905 7.2469177 11.088684c1.0671692 1.319397 2.5223694 2.8716125 4.365631 4.6566467c1.8626709 1.7850647 3.8320312 3.5119324 5.908142 5.180542c2.0954895 1.6686401 4.0648804 3.0656433 5.908142 4.1910095c1.6477661 1.023346 2.993164 1.5350037 4.0362244 1.5350037c0.12374878 0 0.24325562 -0.0072021484 0.35849 -0.021606445c2.5188293 1.1651917 4.432373 1.7477722 5.740631 1.7477722c0.17315674 0 0.33569336 -0.010223389 0.48764038 -0.03060913c1.319397 -0.1746521 2.3962402 -0.67910767 3.2305603 -1.5134277c0.83432007 -0.36865234 1.484314 -1.1835632 1.9499817 -2.4447327c0.4850769 -1.2417908 0.84402466 -2.4932556 1.0768433 -3.7544556c0.2522583 -1.2417603 0.3201599 -2.0372925 0.20373535 -2.3865356c0.11642456 -0.60147095 -0.00970459 -1.2611694 -0.37835693 -1.979065c-0.34924316 -0.7178955 -1.0671387 -1.5522156 -2.1536865 -2.5029602c-1.0671692 -0.9507446 -2.7261047 -1.9596863 -4.9768066 -3.026825c-1.0865784 0 -2.7066956 -0.7178955 -4.8604126 -2.153717c-2.1342773 -1.435791 -4.569336 -3.6380005 -7.3051147 -6.6066284c-2.153717 -2.0372925 -4.093994 -4.5402527 -5.8208313 -7.5088806c-1.7268372 -2.9880066 -3.3081665 -6.0342407 -4.743988 -9.138672c-1.7850342 -3.3372803 -3.3372498 -7.120819 -4.6566467 -11.350616c-0.9468994 -3.080902 -1.7084656 -6.7485657 -2.28479 -11.00296l0 0c1.646759 -1.2403564 3.2426758 -2.394287 4.7877502 -3.461792c2.1536865 -1.4940186 3.647705 -2.483551 4.482025 -2.968628c0.11853027 0.0126953125 0.23510742 0.019042969 0.34973145 0.019042969c0.9359436 0 1.7409973 -0.42349243 2.4151611 -1.2705078c0.77612305 -0.9507446 1.2902832 -1.7268677 1.542511 -2.3283386c0.46566772 -0.7178955 1.1738892 -1.3970032 2.1246033 -2.0372925c0.9701538 -0.6596985 1.4552307 -0.9895325 1.4552307 -0.9895325c0.11639404 0.029083252 0.23098755 0.043640137 0.34378052 0.043640137c0.3383484 0 0.66030884 -0.13095093 0.96588135 -0.3928833c0.42687988 -0.36865234 0.882843 -0.5529785 1.3679199 -0.5529785c0.9507141 -1.4358215 2.9395142 -3.3760986 5.966339 -5.8208313c3.0462341 -2.4447632 6.9558716 -5.2775574 11.728943 -8.498413c3.4537048 -2.3671265 6.4320374 -4.5014343 8.934967 -6.402893c2.5029602 -1.9208984 3.7544556 -2.8813171 3.7544556 -2.8813171c0.25222778 -0.60150146 1.2417603 -1.4940186 2.9685974 -2.6775818c1.7268677 -1.2029724 4.074585 -2.4544373 7.043213 -3.754425c1.8876038 -1.0828247 3.2344666 -1.9945679 4.040619 -2.7352905l0 0c1.9857178 0.7596741 5.529785 1.2542725 10.632233 1.4837952c2.7357788 0 5.238739 0.05822754 7.5088806 0.17462158c1.1350403 0.05822754 2.2094727 0.08731079 3.2232666 0.08731079c1.013794 0 1.9669495 -0.029083252 2.859497 -0.08731079l6.6066284 0l0 2.8522034c0 0.60150146 -0.27163696 1.9208984 -0.8149109 3.9581604c-0.52389526 2.0178833 -1.0283508 3.9775696 -1.5134277 5.879059c-0.46566772 2.1536865 -1.0283508 4.3074036 -1.6880493 6.46109c-0.65966797 2.1343079 -1.2223511 4.152191 -1.6880188 6.0536804c-0.2522583 1.3193665 -0.6499939 3.4730835 -1.1932678 6.4611206c-0.52389526 2.9685974 -1.4455261 5.7044067 -2.7648926 8.207336c-0.46566772 3.5701294 -0.9701538 6.790985 -1.5134277 9.662598c-0.52386475 2.8522034 -0.7857971 4.753662 -0.7857971 5.7044067c-0.2522583 0.9701233 -0.7373047 2.8522034 -1.4552307 5.646179c-0.6984863 2.7940063 -1.5328064 6.043976 -2.5029297 9.749878c-0.9507446 3.6865234 -1.9014893 7.3827515 -2.8522034 11.088684c-0.9507446 3.6865234 -1.8141785 6.9364624 -2.590271 9.749878c-0.77612305 2.7940063 -1.3970032 4.6081543 -1.8626709 5.4424744c-1.2029724 2.6193848 -0.94104004 4.9379883 0.7857971 6.955902c1.7268677 2.0372925 3.7253418 3.356659 5.995453 3.9581604c1.319397 0.58206177 2.2701416 0.9022217 2.8522034 0.9604187c0.082977295 0.01071167 0.16482544 0.016052246 0.24557495 0.016052246c0.5046692 0 0.966095 -0.20907593 1.3842773 -0.6272278c0.34924316 -0.34924316 1.0865479 -1.7753601 2.211914 -4.2783203c1.1447449 -2.5029602 2.3671265 -5.364868 3.6671143 -8.585693c1.3193665 -3.2208557 2.3380127 -5.9663696 3.0559387 -8.236481c0 -0.4850769 0.17462158 -1.3193665 0.52386475 -2.5029602c0.36865234 -1.1835632 0.5529785 -2.376831 0.5529785 -3.5798035c1.5522156 -2.968628 1.7268372 -4.5790405 0.52386475 -4.831299c0.36865234 -0.2328186 0.78582764 -1.4163818 1.2514954 -3.5506897c0.4850464 -2.153717 0.93133545 -4.452942 1.3387756 -6.8976746c0.42687988 -2.4447632 0.6402893 -4.200714 0.6402893 -5.267853c0 -0.9701538 0.23284912 -1.8335571 0.69851685 -2.590271c0.4850464 -0.7760925 0.7276001 -1.164154 0.7276001 -1.164154c0.46566772 -0.4850769 0.9022217 -1.6201172 1.3096924 -3.405182c0.42684937 -1.7850647 0.76638794 -3.9872742 1.0186157 -6.6066284c0.46566772 -2.7552185 0.9701538 -5.0544434 1.5134277 -6.897705c0.5432739 -1.8432312 0.8149109 -2.7648926 0.8149109 -2.7648926c0 -0.9507141 0.20373535 -1.9014587 0.61120605 -2.8522034c0.42684937 -0.9701233 0.8731079 -2.2895203 1.3387756 -3.9581604c0.7178955 -1.7850342 1.105957 -3.0365295 1.164154 -3.754425c0.05822754 -0.7178955 -0.14550781 -1.3096924 -0.61117554 -1.7753601c0.46566772 -0.7178955 1.0865479 -2.211914 1.8626709 -4.482025c0.7760925 -2.270111 1.5231018 -4.947693 2.2409973 -8.032745c0.717926 -2.755188 1.4649048 -5.384247 2.2410278 -7.887207c0.77612305 -2.5029602 1.3970032 -3.754425 1.8626709 -3.754425c0 -0.5820923 0.7760925 -0.9604492 2.3283386 -1.1350708c1.5522156 -0.19403076 3.2208557 -0.29104614 5.00589 -0.29104614c4.1716003 -0.2328186 7.5670776 -0.49475098 10.186462 -0.7857971c2.6387634 -0.31045532 5.32605 -0.69851685 8.061829 -1.1641846c1.435791 0 3.1626587 -0.08731079 5.180542 -0.26193237c2.0178833 -0.19403076 3.4439697 -0.29104614 4.27829 -0.29104614c1.4358215 0 2.745514 -0.14550781 3.9290466 -0.43655396c1.2030029 -0.31045532 2.046997 -0.6984863 2.5321045 -1.164154c0.4656372 -0.9507446 0.6984863 -1.5134277 0.6984863 -1.6880493c0 -0.19403076 -0.23284912 -0.52386475 -0.6984863 -0.9895325c-0.48510742 -0.4850769 -0.75671387 -0.9604492 -0.8149414 -1.426117c-0.05822754 -0.4850769 -0.08728027 -0.9701233 -0.08728027 -1.4552002c-0.36865234 -0.5820923 -1.1156616 -1.5619202 -2.2410278 -2.9395142c-1.1253662 -1.377594 -3.0656433 -2.0664062 -5.8208313 -2.0664062c-1.7850647 -0.2328186 -3.5410156 -0.34924316 -5.267853 -0.34924316c-1.7268372 0 -3.1238403 0.30075073 -4.1910095 0.9022217c-0.83432007 0 -2.328308 0.08731079 -4.482025 0.2619629c-2.1343079 0.17462158 -4.5790405 0.26193237 -7.3342285 0.26193237c-2.2507324 0.11639404 -4.394745 0.2425232 -6.4320374 0.37835693c-2.0178833 0.11639404 -3.2693481 0.4074402 -3.754425 0.8731079c-0.83432007 -0.9507141 -1.164154 -2.0178833 -0.9895325 -3.2014465c0.19403076 -1.2029724 0.04849243 -2.3380432 -0.43655396 -3.405182c-1.319397 -1.9014893 -3.317871 -2.9977417 -5.995453 -3.2887573c-0.396698 -0.04598999 -0.77441406 -0.069000244 -1.1331787 -0.069000244zm88.50235 3.5323792c0 0 -1.0186768 0.18432617 -3.0559692 0.5529785c-2.0178833 0.34924316 -4.161865 0.6984863 -6.432007 1.04776c-3.4536743 0.7178955 -6.3737793 1.435791 -8.760315 2.1536865c-2.3865356 0.7178955 -3.8805542 1.6104431 -4.4820557 2.6775818c-0.9507446 2.0372925 -1.7850342 3.0559387 -2.5029297 3.0559387c-2.968628 0.11642456 -3.9193726 1.7268372 -2.852234 4.831299c0.46569824 0.2328186 0.6403198 0.67907715 0.52386475 1.3387756c-0.11639404 0.6402893 -0.40740967 1.8626709 -0.8731079 3.6671143c-0.9701538 0.7178955 -1.5424805 1.6686401 -1.7171631 2.8522034c-0.17462158 1.1835632 -0.26190186 1.7753601 -0.26190186 1.7753601c-1.1835938 1.5522156 -1.8723755 2.6872864 -2.0664062 3.405182c-0.17462158 0.7178955 -0.26190186 1.0768433 -0.26190186 1.0768433c-0.11645508 0 -0.5336304 0.6596985 -1.2515259 1.9790955c-0.7178955 1.2999878 -1.4940186 2.8812866 -2.328308 4.7439575c-0.8343506 1.8432617 -1.5522461 3.5992126 -2.1536865 5.267853c-0.5820923 1.6686401 -0.87316895 2.861908 -0.87316895 3.5798035c-0.7178955 0.5820923 -1.4649048 1.6783447 -2.2409668 3.2887878c-0.77612305 1.6104126 -1.435852 3.2790527 -1.979126 5.00589c-0.52386475 1.7268372 -0.84399414 3.133545 -0.9604187 4.220093c-0.25222778 0.34927368 -0.6208801 1.096283 -1.105957 2.2410278c-0.46566772 1.1253662 -0.8828125 2.2216187 -1.2514648 3.2887573c-0.34927368 1.0671692 -0.52389526 1.7268677 -0.52389526 1.9790955c-0.9507141 1.9014587 -2.3477173 4.9961853 -4.190979 9.28421c-1.8432617 4.288025 -3.5992126 9.235718 -5.267853 14.843109c-0.36865234 1.9014587 -0.6984863 3.812622 -0.9895325 5.7335205c-0.29104614 1.9014587 -0.43655396 3.026825 -0.43655396 3.376068c-0.60150146 1.0865479 -1.1156921 2.1634216 -1.5425415 3.2305603c-0.4074402 1.0671387 -0.5529785 1.8432617 -0.43655396 2.3283386c0 2.0178833 -0.2425232 3.2693481 -0.7276001 3.754425c-0.31045532 0.3104248 -0.6252136 0.46566772 -0.9442749 0.46566772c-0.1595459 0 -0.3201294 -0.03881836 -0.48184204 -0.11642456c0 0.23284912 -0.27163696 1.2514648 -0.8149109 3.0559387c-0.52386475 1.7850647 -1.1447449 3.8708496 -1.8626709 6.2573853c-0.7178955 2.8522034 -1.2611694 4.8992004 -1.6298218 6.1409607c-0.34924316 1.2612 -0.49475098 2.0664062 -0.43655396 2.4156494c0.0776062 0.36865234 0.17462158 0.7276001 0.29104614 1.0768433c0.11639404 1.0865784 0.7373047 2.046997 1.8626709 2.8813171c1.1447449 0.83432007 2.4253235 1.542511 3.8417358 2.1246033c1.435791 0.60147095 2.4544373 1.0865479 3.0559387 1.4552002c0.25723267 0.221344 0.5569153 0.33203125 0.89901733 0.33203125c0.76742554 0 1.7483215 -0.5569458 2.9427185 -1.6708069c1.7268372 -1.6104431 2.8230896 -4.0260925 3.2887573 -7.2469482c1.4358215 -4.7730713 2.7454834 -8.77005 3.9290771 -11.990875c1.2029419 -3.2208557 2.4253235 -6.4417114 3.6670837 -9.662567c1.2611694 -3.2208557 2.6096802 -7.20813 4.045471 -11.9618225l3.7544556 -10.73941l6.6066284 0.9022217c1.2030029 0 2.425354 -0.05819702 3.6671143 -0.17462158c1.2611694 -0.13580322 2.1828003 -0.43655396 2.7648926 -0.9022217c2.5029907 -0.4850769 4.7633667 -0.9604492 6.78125 -1.426117c2.0372925 -0.4850464 4.4335327 -1.5619202 7.1887207 -3.2305603c0.46569824 -0.2328186 1.0574951 -0.67907715 1.7753906 -1.3387756c0.7178955 -0.6596985 1.3678589 -1.1350708 1.9499512 -1.426117c0.14099121 -0.06820679 0.2654419 -0.10229492 0.37335205 -0.10229492c0.3526001 0 0.5288696 0.36395264 0.5288696 1.0918579c0.9507446 -1.4358215 2.260437 -2.7164001 3.9290771 -3.8417664c1.6880493 -1.1447449 3.2402344 -2.1342773 4.6566772 -2.9685974c1.552185 -0.83432007 2.7454834 -1.9888 3.579773 -3.4634094c0.8343506 -1.493988 1.2514648 -2.2409973 1.2514648 -2.2409973c0.8343506 -0.2522583 2.0567017 -1.0865784 3.6671753 -2.5029602c1.6104126 -1.4358215 2.9492188 -2.8327942 4.0163574 -4.1910095c1.0018921 -1.2702332 1.2861328 -1.905365 0.85284424 -1.905365c-0.036621094 0 -0.07836914 0.0045166016 -0.12524414 0.01361084c1.0671387 -0.83432007 2.2894897 -2.6775818 3.6671143 -5.529785c1.3776245 -2.8716125 2.6872559 -6.121582 3.9290771 -9.749878c1.2611694 -3.6477356 2.2700806 -7.0820007 3.0267944 -10.302856c0.77612305 -3.2208862 1.0477295 -5.5491943 0.8149414 -6.985016c-0.34924316 -2.7357788 -2.1052246 -5.888733 -5.2678833 -9.458832c-3.1625977 -3.5700989 -6.8879395 -6.37381 -11.175964 -8.411102c-1.5522461 -0.34924316 -3.6671143 -0.6402893 -6.3447266 -0.8731079c-2.6775513 -0.25222778 -4.850647 -0.37835693 -6.519287 -0.37835693z" fill-rule="evenodd"/></g></g></svg>